# xmcd
#
# Track frame offsets:
#	150
#	14662
#	28160
#	40782
#	54460
#	69532
#	83867
#	99260
#	112077
#	124710
#	137967
#	151327
#	166422
#	180905
#	194647
#	210455
#	223840
#	237007
#	251460
#	267277
#	281387
#	296927
#	312332
#	327730
#	343470
#
# Disc length: 4735 seconds
# Revision: 0
# Processed by: cddbd v1.5.2PL0 Copyright (c) Steve Scherf et al.
# Submitted via: dBpowerAMP V12.0
#
DISCID=84127d19
DTITLE=Bessie Smith - Empress of the Blues
DYEAR=2018
DGENRE=Blues
TTITLE0=Mean Old Bedbug Blues
TTITLE1=A Good Man is Hard to Find
TTITLE2=It Won't Be You
TTITLE3=Empty Bad Blues - Part1
TTITLE4=Empty Bad Blues - Part2
TTITLE5=Devil's Gonna Git You
TTITLE6=Poor Man's Blues
TTITLE7=Me and My Gin
TTITLE8=I'm Wild About That Thing
TTITLE9=Kitchen Man
TTITLE10=Nobody's Know You When You're Down and Out
TTITLE11=Take It Right Back('Cause I don't Want it Here)
TTITLE12=He's Got Me Goin'
TTITLE13=Wasted Life Blues
TTITLE14=Keep It to Yourself
TTITLE15=New Orleans Hope Scop Blues
TTITLE16=On Revival Day (A Rythmic Spiritual)
TTITLE17=Moan, You Moaners
TTITLE18=Hustlin' Dan
TTITLE19=Black Mountain Blues
TTITLE20=Long Old Road
TTITLE21=Safety Mama
TTITLE22=Do Your Duty
TTITLE23=Gimme a Pigfoot
TTITLE24=Take Me for a Buggy Ride
EXTD=
EXTT0=
EXTT1=
EXTT2=
EXTT3=
EXTT4=
EXTT5=
EXTT6=
EXTT7=
EXTT8=
EXTT9=
EXTT10=
EXTT11=
EXTT12=
EXTT13=
EXTT14=
EXTT15=
EXTT16=
EXTT17=
EXTT18=
EXTT19=
EXTT20=
EXTT21=
EXTT22=
EXTT23=
EXTT24=
PLAYORDER=
